<svg xmlns="http://www.w3.org/2000/svg" width="37.041" height="70.982" viewBox="0 0 37.041 70.982"><defs><style>.a,.b{fill:none;stroke:#fff;}.b{stroke-width:2px;}</style></defs><g transform="translate(0.372 0.928)"><path class="a" d="M1245.325,1424.945c40.547,16.271,35.333,52.751,35.333,52.751s-.706,7.86-3.7,12.172-4.211,3.592-4.211,3.592" transform="translate(-1245.325 -1424.945)"/><path class="a" d="M-.338,7.285,3,0" transform="translate(27.174 62.561)"/><path class="a" d="M1245.325,1424.945c40.547,16.271,35.333,52.751,35.333,52.751s-.706,7.86-3.7,12.172-4.211,3.592-4.211,3.592" transform="translate(-1245.325 -1424.945)"/><path class="a" d="M-.338,7.285,3,0" transform="translate(27.174 62.561)"/><path class="a" d="M1245.325,1424.945c40.547,16.271,35.333,52.751,35.333,52.751s-.706,7.86-3.7,12.172-4.211,3.592-4.211,3.592" transform="translate(-1245.325 -1424.945)"/><path class="a" d="M1245.325,1424.945c40.547,16.271,35.333,52.751,35.333,52.751s-.706,7.86-3.7,12.172-4.211,3.592-4.211,3.592" transform="translate(-1245.325 -1424.945)"/><path class="a" d="M1245.325,1424.945c40.547,16.271,35.333,52.751,35.333,52.751s-.706,7.86-3.7,12.172-4.211,3.592-4.211,3.592" transform="translate(-1245.325 -1424.945)"/><path class="b" d="M1245.325,1424.945c40.547,16.271,35.333,52.751,35.333,52.751s-.706,7.86-3.7,12.172-4.211,3.592-4.211,3.592" transform="translate(-1245.325 -1424.945)"/><line class="a" y1="2" x2="8" transform="translate(27.174 67.561)"/></g></svg>