<svg xmlns="http://www.w3.org/2000/svg" width="55.907" height="47.306" viewBox="0 0 55.907 47.306"><defs><style>.a{fill:#0e253d;}</style></defs><path class="a" d="M23.617,62H14.959C10.592,60.8.711,61.112.711,70.569c0,3.447,1.638,5.869,3.822,6.988C1.792,80.192.492,81.435.492,83.194a3.11,3.11,0,0,0,1.953,3.071C.888,87.8,0,88.918,0,91.014c0,3.679,3.063,5.822,11.1,5.822,7.725,0,12.207-3.027,12.207-8.383,0-6.72-4.931-6.473-16.557-7.217l1.466-2.469c2.978.868,12.961,1.146,12.961-7.777a7.627,7.627,0,0,0-1.638-4.7l4.085-.325ZM16.692,89.713c0,3.673-11.453,3.677-11.453.278a4.221,4.221,0,0,1,1.154-2.468C14.879,88.131,16.692,87.91,16.692,89.713ZM11.144,74.3c-5.765,0-5.51-8.152.131-8.152C16.685,66.143,16.825,74.3,11.144,74.3ZM25.7,85.81V82.132c2.921-.419,2.974-.229,2.974-1.26V67.181c0-.974-.224-.845-2.974-1.863l.488-3.771h9.191V80.875c0,.746.044.839.711.933l2.264.325V85.81Zm5.727-27.988c-2.53,0-4-1.539-4-4.194s1.465-4.1,4-4.1c2.575,0,4.04,1.446,4.04,4.1S34,57.822,31.427,57.822ZM55.907,84a17.09,17.09,0,0,1-7.237,1.863c-5.283,0-7.28-2.234-7.28-7.5v-12.2c0-.621.115-.465-3.463-.465V61.555c3.907-.466,5.46-2.52,5.948-7.592h4.218c0,7.541-.146,7.081.356,7.081h6.257V65.7H48.093V76.831c0,.793-.537,5.89,6.614,3.075Z" transform="translate(0 -49.53)"/></svg>