<svg xmlns="http://www.w3.org/2000/svg" width="34.473" height="34.473" viewBox="0 0 34.473 34.473"><defs><style>.a{fill:#0e253d;}</style></defs><path class="a" d="M30.78,32H3.694A3.7,3.7,0,0,0,0,35.694V62.78a3.7,3.7,0,0,0,3.694,3.694H30.78a3.7,3.7,0,0,0,3.694-3.694V35.694A3.694,3.694,0,0,0,30.78,32ZM21.338,61.525c-.646.115-.885-.285-.885-.616,0-.416.015-2.539.015-4.255a3,3,0,0,0-.87-2.362c2.847-.315,5.848-.708,5.848-5.625a3.951,3.951,0,0,0-1.316-3A4.813,4.813,0,0,0,24,42.2c-1.07-.331-3.517,1.377-3.517,1.377a12.105,12.105,0,0,0-6.4,0s-2.447-1.708-3.517-1.377a4.775,4.775,0,0,0-.131,3.463,3.865,3.865,0,0,0-1.2,3c0,4.894,2.87,5.309,5.717,5.625a2.789,2.789,0,0,0-.816,1.716,2.7,2.7,0,0,1-3.717-1.07,2.681,2.681,0,0,0-1.962-1.316c-1.247-.015-.085.785-.085.785.831.385,1.416,1.862,1.416,1.862.746,2.285,4.317,1.516,4.317,1.516,0,1.07.015,2.809.015,3.124,0,.331-.231.731-.885.616A12.766,12.766,0,0,1,4.6,49.344,12.211,12.211,0,0,1,17.067,36.917,12.484,12.484,0,0,1,29.856,49.344,12.649,12.649,0,0,1,21.338,61.525Zm-7.549-4.7c-.146.031-.285-.031-.3-.131-.015-.115.085-.215.231-.246.146-.015.285.046.3.146S13.943,56.793,13.789,56.824Zm-.731-.069c0,.1-.115.185-.269.185-.169.015-.285-.069-.285-.185,0-.1.115-.185.269-.185C12.92,56.554,13.058,56.639,13.058,56.754ZM12,56.67c-.031.1-.185.146-.315.1-.146-.031-.246-.146-.215-.246s.185-.146.315-.115C11.942,56.454,12.043,56.57,12,56.67Zm-.946-.416c-.069.085-.215.069-.331-.046-.115-.1-.146-.246-.069-.315.069-.085.215-.069.331.046C11.088,56.039,11.127,56.193,11.058,56.254Zm-.7-.7c-.069.046-.2,0-.285-.115s-.085-.246,0-.3c.085-.069.215-.015.285.1A.225.225,0,0,1,10.357,55.554Zm-.5-.746c-.069.069-.185.031-.269-.046-.085-.1-.1-.215-.031-.269.069-.069.185-.031.269.046C9.911,54.638,9.926,54.754,9.857,54.808Zm-.516-.569a.145.145,0,0,1-.215.031c-.1-.046-.146-.131-.115-.2a.181.181,0,0,1,.215-.031C9.326,54.092,9.372,54.177,9.342,54.238Z" transform="translate(0 -32)"/></svg>