<svg xmlns="http://www.w3.org/2000/svg" width="358.999" height="322.056" viewBox="0 0 358.999 322.056"><defs><style>.a{fill:#3f3d56;}.b{fill:#0e253d;}.c{fill:#acc0e5;}.d{fill:#f7b2b1;}.e{fill:#2d4864;}.f{fill:#e5e5e5;}.g{fill:#eed4b4;}.h{fill:#efedb9;}.i{fill:#cbcbcb;}.j{fill:#ffb8b8;}.k{fill:#ccc;}.l{fill:#646371;}.m{fill:#585760;}.n{fill:#edd6b4;}</style></defs><g transform="translate(-15.292)"><path class="a" d="M76.946,35.01h0Z" transform="translate(15.292 226.045)"/><path class="b" d="M804.049,265.9a58.9,58.9,0,1,1,58.9-58.9A58.9,58.9,0,0,1,804.049,265.9Zm0-116.926A58.027,58.027,0,1,0,862.076,207a58.027,58.027,0,0,0-58.027-58.027Z" transform="translate(-488.658 -148.104)"/><circle class="c" cx="28.359" cy="28.359" r="28.359" transform="translate(285.287 30.54)"/><rect class="d" width="19.452" height="19.452" transform="translate(344.068 154.619) rotate(-30)"/><rect class="e" width="19.452" height="19.452" transform="translate(86.974 60.209) rotate(-30)"/><rect class="f" width="19.452" height="19.452" transform="translate(320.599 260.763) rotate(-30)"/><circle class="g" cx="6.981" cy="6.981" r="6.981" transform="translate(306.666 51.919)"/><rect class="h" width="41.726" height="41.726" transform="translate(253.646 174.545) rotate(-30)"/><rect class="i" width="224.023" height="1.067" transform="translate(79.328 320.989)"/><path class="j" d="M571.056,453.339a7.23,7.23,0,0,1,2.336-10.837l-1.51-16.452,9.774-3.356,1.806,23.263a7.269,7.269,0,0,1-12.406,7.381Z" transform="translate(-406.712 -276.231)"/><path class="k" d="M581.4,294.216s6.707-14.076,12.667-9.125-8.171,46.571-8.171,46.571l-2.149,40.4-11.327-1.132-3.2-39.364Z" transform="translate(-406.567 -211.531)"/><path class="j" d="M189.39,517.071l8.408,6.807,30.254-29.193-12.41-10.045Z" transform="translate(-104.521 -226.139)"/><path class="l" d="M415.82,685.144l16.559,13.4h0a13.578,13.578,0,0,1,2.01,19.095l-.278.343L407,696.04Z" transform="translate(-330.873 -398.693)"/><path class="j" d="M408.47,544.362h10.818l5.146-41.726H408.468Z" transform="translate(-206.745 -234.536)"/><path class="l" d="M637.3,722.346H658.6a13.577,13.577,0,0,1,13.577,13.576v.442H637.3Z" transform="translate(-438.333 -416.052)"/><path class="m" d="M569.22,362.227s20.295,24.707,15.883,49.413-7.941,43.237-7.941,43.237l-7.059,55.59s2.647,15.139-.882,19.041c0,0,5.294,9.2-4.412,12.725s-14.943-1.219-14.943-1.219-7.116-10.252-2.7-12.9l1.859-109.094L478.334,511.35s-1.3,11.231-10.356,11.351l-10.821,8.061L444.8,523.7l6.177-7.941s-3.529-8.824,4.412-10.588l45.884-60,11.471-30.883s6.177-23.824,22.942-33.53V370.429Z" transform="translate(-348.513 -248.016)"/><path class="k" d="M603.552,276.775h0a16.849,16.849,0,0,1,22.209-3.136l.733.489h0a65.039,65.039,0,0,1,15.225,31.348l3.3,18.066-41.472,8.984-9.722-33.531A18.944,18.944,0,0,1,603.552,276.775Z" transform="translate(-417.699 -205.359)"/><path class="j" d="M725.861,455.978a8.274,8.274,0,0,1-4.72-11.777L709.178,429.56l7.125-9.44,16.6,20.914a8.319,8.319,0,0,1-7.045,14.944Z" transform="translate(-471.873 -275.03)"/><path class="k" d="M645.475,292.114s-2.647-17.647,6.177-16.765,22.059,49.413,22.059,49.413l23.824,39.707-11.471,6.177-28.236-35.3Z" transform="translate(-441.974 -207.463)"/><path class="n" d="M636.485,218.512H594.466a3.264,3.264,0,0,1-3.26-3.26V197.14a24.269,24.269,0,1,1,48.538,0v18.111A3.264,3.264,0,0,1,636.485,218.512Z" transform="translate(-416.826 -159.66)"/><circle class="j" cx="17.793" cy="17.793" r="17.793" transform="translate(179.489 47.716) rotate(-61.337)"/><path class="n" d="M660.935,204.655H638.542l-.23-3.689-1.148,3.689h-3.448l-.455-7.311-2.276,7.311h-6.672v-.362c0-10.586,7.506-19.2,16.732-19.2H644.2c9.226,0,16.732,8.612,16.732,19.2Z" transform="translate(-432.274 -165.364)"/><path class="n" d="M628.695,227.491a5.394,5.394,0,0,1-.817-.063l-26.653-4.105V195.561a10.693,10.693,0,0,1,10.693-10.693h18.647l-.726.739c-10.106,10.289-2.492,26.974,2.946,36a3.559,3.559,0,0,1-.362,4.217A4.842,4.842,0,0,1,628.695,227.491Z" transform="translate(-421.5 -165.259)"/></g></svg>