<svg xmlns="http://www.w3.org/2000/svg" width="662.607" height="492.398" viewBox="0 0 662.607 492.398"><defs><style>.a{fill:#0e253d;}.b{fill:#f2f2f2;}.c{fill:#dedede;}.d{fill:#d9d2d2;}.e{fill:#f4c8c8;}.f{fill:#edd5b3;}.g{fill:#cdc3b6;}.h{fill:#cc99a1;}.i{fill:#585769;}.j{fill:#a8a6d8;}.k{fill:#b2b0e2;}.l{fill:#ccc3b6;}.m{fill:#ccc;}</style></defs><path class="a" d="M0,32,4.978,88.457,27.387,95.9,49.8,88.457,54.773,32ZM44.66,43.411l-.685,6.747L27.529,57.19l-.043.014h15.9L41.565,78.115,27.558,82.209,13.465,78.044,12.552,67.5h6.975l.456,5.463,7.5,1.9,7.8-2.2.528-8.787L12.1,63.809v-.014l-.029.014-.514-6.6,15.99-6.661.927-.385H10.94l-.827-6.747Z" transform="translate(235.53 91.083)"/><path class="a" d="M0,32,5.08,89.615l22.8,7.6,22.941-7.6L55.9,32ZM44.864,50.618H18.109l.6,7.191H44.267l-1.98,21.6-14.251,3.93v.044h-.16L13.509,79.411l-.873-11.034h6.944l.509,5.546,7.788,2.111,7.817-2.111.873-9.054h-24.3L10.408,43.674H45.5Z" transform="translate(487.397 154.985)"/><path class="a" d="M36.253,66.719c0,5.26-4.926,5.138-5.447,5.138H20.773V61.725H30.806C36.084,61.725,36.253,65.682,36.253,66.719Zm-6.22-9.07c.083,0,4.768.124,4.768-4.5,0-1.925-.435-4.449-4.768-4.449h-9.26v8.952ZM55.564,41.261V78.3A9.288,9.288,0,0,1,46.3,87.564H9.261A9.288,9.288,0,0,1,0,78.3V41.261A9.288,9.288,0,0,1,9.261,32H46.3A9.288,9.288,0,0,1,55.564,41.261ZM41.927,67.454c0-2.675-.825-7.229-6.083-8.353V59.01a7.106,7.106,0,0,0,4.631-6.9c0-.868.248-8.034-9.624-8.034H15.1V76.487c15.9,0,17.348.208,20.291-.708C37.152,75.231,41.927,73.549,41.927,67.454Z" transform="translate(262.522 202)"/><path class="a" d="M23.617,62H14.959C10.592,60.8.711,61.112.711,70.569c0,3.447,1.638,5.869,3.822,6.988C1.792,80.192.492,81.435.492,83.194a3.11,3.11,0,0,0,1.953,3.071C.888,87.8,0,88.918,0,91.014c0,3.679,3.063,5.822,11.1,5.822,7.725,0,12.207-3.027,12.207-8.383,0-6.72-4.931-6.473-16.557-7.217l1.466-2.469c2.978.868,12.961,1.146,12.961-7.777a7.627,7.627,0,0,0-1.638-4.7l4.085-.325ZM16.692,89.713c0,3.673-11.453,3.677-11.453.278a4.221,4.221,0,0,1,1.154-2.468C14.879,88.131,16.692,87.91,16.692,89.713ZM11.144,74.3c-5.765,0-5.51-8.152.131-8.152C16.685,66.143,16.825,74.3,11.144,74.3ZM25.7,85.81V82.132c2.921-.419,2.974-.229,2.974-1.26V67.181c0-.974-.224-.845-2.974-1.863l.488-3.771h9.191V80.875c0,.746.044.839.711.933l2.264.325V85.81Zm5.727-27.988c-2.53,0-4-1.539-4-4.194s1.465-4.1,4-4.1c2.575,0,4.04,1.446,4.04,4.1S34,57.822,31.427,57.822ZM55.907,84a17.09,17.09,0,0,1-7.237,1.863c-5.283,0-7.28-2.234-7.28-7.5v-12.2c0-.621.115-.465-3.463-.465V61.555c3.907-.466,5.46-2.52,5.948-7.592h4.218c0,7.541-.146,7.081.356,7.081h6.257V65.7H48.093V76.831c0,.793-.537,5.89,6.614,3.075Z" transform="translate(487.397 49.9)"/><path class="a" d="M0,32V87.32H55.32V32ZM30.105,75.145c0,5.384-3.161,7.841-7.767,7.841a8.076,8.076,0,0,1-7.8-4.754l4.235-2.556c.815,1.445,1.556,2.667,3.346,2.667,1.7,0,2.791-.667,2.791-3.272V57.4h5.2Zm12.3,7.841c-4.828,0-7.952-2.3-9.471-5.31l4.235-2.445a5.673,5.673,0,0,0,5.125,3.161c2.149,0,3.532-1.074,3.532-2.568,0-1.778-1.408-2.408-3.791-3.458l-1.3-.556C36.983,70.218,34.5,68.205,34.5,63.97c0-3.9,2.976-6.866,7.607-6.866a7.656,7.656,0,0,1,7.384,4.161l-4.05,2.593c-.889-1.593-1.852-2.223-3.346-2.223a2.256,2.256,0,0,0-2.482,2.223c0,1.556.963,2.186,3.2,3.161l1.3.556c4.421,1.889,6.9,3.828,6.9,8.175,0,4.668-3.68,7.236-8.607,7.236Z" transform="translate(290.304 8.52)"/><path d="M26.04,47.31C26.014,47.361,25.988,47.4,26.04,47.31Zm21.49-7.5a11.314,11.314,0,0,0-5,1.165,10.624,10.624,0,0,1-1.121-2.6,6.931,6.931,0,0,1-.095-2.182,18.378,18.378,0,0,1,.656-2.346c-.009-.095-.121-.569-1.234-.578s-2.07.216-2.182.509a10.6,10.6,0,0,0-.457,1.648c-.2,1.009-2.225,4.615-3.372,6.5a6.7,6.7,0,0,1-.768-1.9,6.931,6.931,0,0,1-.095-2.182,18.378,18.378,0,0,1,.656-2.346c-.009-.095-.121-.569-1.233-.578s-2.07.216-2.182.509-.233.983-.457,1.648-2.923,6.668-3.63,8.229c-.362.794-.673,1.432-.9,1.863-.035.069-.06.112-.078.147.026-.043.043-.086.043-.069-.19.371-.3.578-.3.578v.009c-.147.276-.311.526-.388.526a3.578,3.578,0,0,1,.026-1.717c.405-2.088,1.363-5.331,1.354-5.443-.009-.06.181-.621-.63-.923a1.015,1.015,0,0,0-1.139.19c-.069,0-.121.173-.121.173s.871-3.657-1.673-3.657c-1.587,0-3.8,1.742-4.881,3.321-.681.371-2.157,1.173-3.709,2.027l-1.786.983c-.043-.043-.078-.086-.121-.129-3.087-3.3-8.787-5.624-8.546-10.049.086-1.613.647-5.848,10.961-10.99,8.454-4.21,15.212-3.054,16.376-.483,1.673,3.666-3.613,10.489-12.392,11.473-3.346.371-5.1-.923-5.545-1.406-.457-.509-.526-.535-.7-.44-.285.155-.1.6,0,.871a5.2,5.2,0,0,0,3.174,2.493c1.613.526,5.536.819,10.28-1.018,5.329-2.053,9.477-7.772,8.261-12.56-1.239-4.865-9.306-6.461-16.934-3.752a38.37,38.37,0,0,0-13,7.453C.454,28.7-.218,32.128.058,33.56,1.04,38.64,8.043,41.953,10.845,44.4c-.138.078-.267.147-.388.216-1.405.7-6.744,3.494-8.08,6.444-1.51,3.347.25,5.745,1.405,6.073a8.612,8.612,0,0,0,9.279-3.761,9.34,9.34,0,0,0,.828-8.583c-.009-.026-.026-.043-.035-.069.362-.216.733-.431,1.1-.647.715-.423,1.414-.811,2.026-1.147a13.4,13.4,0,0,0-.725,3.675,7.636,7.636,0,0,0,1.648,5.322,1.81,1.81,0,0,0,1.328.431c1.19,0,1.725-.983,2.32-2.157.733-1.432,1.38-3.1,1.38-3.1s-.811,4.5,1.406,4.5c.81,0,1.621-1.044,1.984-1.579v.009s.017-.035.06-.1c.086-.129.129-.207.129-.207V49.7c.328-.561,1.044-1.846,2.121-3.968,1.4-2.743,2.734-6.168,2.734-6.168a17.359,17.359,0,0,0,.535,2.226,20.837,20.837,0,0,0,1.156,2.588c-.328.449-.526.707-.526.707a.027.027,0,0,0,.009.017c-.259.345-.552.716-.854,1.078A30.447,30.447,0,0,0,29.1,49.423a.881.881,0,0,0,.242,1.182,2.1,2.1,0,0,0,1.353.216,5.982,5.982,0,0,0,2.027-.466,7.091,7.091,0,0,0,1.742-.914,3.894,3.894,0,0,0,1.673-3.433,7.144,7.144,0,0,0-.63-2.433c.095-.138.2-.285.293-.431a45.857,45.857,0,0,0,3.027-5.229,17.36,17.36,0,0,0,.535,2.226,15.214,15.214,0,0,0,.983,2.217,9.482,9.482,0,0,0-2.941,3.8c-.638,1.837-.138,2.665.8,2.855a2.894,2.894,0,0,0,1.475-.3,6.854,6.854,0,0,0,1.862-.957A4.168,4.168,0,0,0,43.6,44.341a6.417,6.417,0,0,0-.466-2.019,10.529,10.529,0,0,1,5.356-.621c4.8.561,5.743,3.563,5.562,4.813a3.189,3.189,0,0,1-1.527,2.157c-.336.207-.44.285-.414.44.043.224.2.216.483.164a3.747,3.747,0,0,0,2.613-3.338c.138-2.933-2.682-6.159-7.677-6.133ZM10.509,52.287C8.923,54.021,6.7,54.676,5.74,54.124c-1.027-.6-.621-3.149,1.336-5a25.558,25.558,0,0,1,3.743-2.795c.233-.138.569-.345.983-.6.069-.043.1-.06.1-.06.078-.052.164-.095.25-.147a6.885,6.885,0,0,1-1.648,6.754ZM22.1,44.4c-.552,1.354-1.716,4.8-2.423,4.624-.6-.155-.975-2.786-.121-5.374a11.9,11.9,0,0,1,1.889-3.459c.87-.975,1.828-1.285,2.052-.9C23.8,39.8,22.444,43.557,22.1,44.4Zm9.575,4.572c-.233.121-.449.2-.552.138-.078-.043.095-.207.095-.207s1.2-1.285,1.673-1.872c.276-.345.6-.75.939-1.2,0,.043.009.086.009.138-.011,1.544-1.494,2.588-2.167,3Zm7.382-1.682c-.173-.121-.147-.526.431-1.786a6.7,6.7,0,0,1,1.639-2.113,3.121,3.121,0,0,1,.164.932,3.041,3.041,0,0,1-2.233,2.967Z" transform="translate(391.3 -8.879)"/><circle class="b" cx="172.545" cy="172.545" r="172.545" transform="translate(215.151)"/><path class="c" d="M266.079,669.026a28.928,28.928,0,0,0,27.934-4.921c9.784-8.212,12.852-21.741,15.347-34.268l7.383-37.053-15.456,10.643c-11.115,7.654-22.481,15.552-30.177,26.638s-11.055,26.219-4.872,38.214" transform="translate(-168.764 -229.848)"/><path class="b" d="M268.079,730.38c-1.564-11.395-3.173-22.936-2.076-34.453.975-10.228,4.1-20.219,10.448-28.41a47.261,47.261,0,0,1,12.125-10.988c1.213-.765,2.329,1.156,1.121,1.918a44.93,44.93,0,0,0-17.772,21.443c-3.869,9.841-4.491,20.569-3.824,31.024.4,6.322,1.258,12.6,2.119,18.875a1.151,1.151,0,0,1-.776,1.366,1.117,1.117,0,0,1-1.366-.776Z" transform="translate(-169.443 -246.342)"/><path class="d" d="M408.733,727.107a16.487,16.487,0,0,0,15.153,5.633c7.178-1.217,12.586-6.985,17.424-12.425l14.311-16.09L444.953,705c-7.671.559-15.536,1.166-22.516,4.4s-12.993,9.7-13.411,17.385" transform="translate(-214.458 -258.763)"/><path class="b" d="M392.141,754.771c2.515-6.053,5.051-12.192,8.911-17.538a30.884,30.884,0,0,1,13.326-10.957,26.938,26.938,0,0,1,9.129-1.907c.817-.027.812,1.24,0,1.266a25.607,25.607,0,0,0-14.919,5.42c-4.739,3.723-8.137,8.819-10.823,14.151-1.624,3.225-3.014,6.559-4.4,9.891a.656.656,0,0,1-.775.448.637.637,0,0,1-.448-.775Z" transform="translate(-209.499 -263.99)"/><path class="e" d="M289.28,721.011a21.294,21.294,0,0,0,18.554,9.576c9.392-.446,17.223-7,24.271-13.225l20.849-18.408-13.8-.66c-9.923-.475-20.1-.918-29.553,2.142s-18.168,10.424-19.9,20.207" transform="translate(-180.132 -257.136)"/><path class="b" d="M262.911,753.116c7.53-13.323,16.263-28.13,31.869-32.863a35.563,35.563,0,0,1,13.4-1.384c1.423.123,1.068,2.317-.353,2.194a33.038,33.038,0,0,0-21.392,5.659c-6.032,4.106-10.728,9.813-14.7,15.866-2.435,3.708-4.616,7.572-6.8,11.432C264.243,755.254,262.206,754.364,262.911,753.116Z" transform="translate(-168.696 -262.527)"/><path class="f" d="M700.856,456.087c14.971-8.229,33.6-6.577,49.735-.951S781.34,469.978,797,476.8c47.868,20.832,105.562,17.473,150.689-8.774,4.268,9.928-.311,21.283-5.34,30.848s-10.762,19.931-8.691,30.537c2.649,13.572,16.879,21.709,22.645,34.278,5.473,11.931,2.535,25.943-1.663,38.38S945,627.032,945.71,640.139s10.236,26.967,23.363,26.978c-19.453,3.023-39.289,6.047-58.731,2.95s-38.781-13.38-47.808-30.875c-4.512-8.745-6.251-18.8-11.433-27.164-8.826-14.248-25.764-20.949-41.746-26s-33.084-9.914-44.337-22.336c-10.721-11.836-14.117-28.323-19.8-43.248a138.138,138.138,0,0,0-47.83-62.375" transform="translate(-306.466 -192.908)"/><path class="g" d="M713.176,373.381c-5.256-2.445-11.708-3.246-17.056-.975s-8.993,8.1-7.264,13.249c.784,2.337,2.57,4.635,1.874,6.994-.536,1.816-2.4,3.016-4.238,3.868s-3.841,1.57-5.168,3.008-1.6,3.914.054,5.029c.546.367,1.228.542,1.758.929a2.793,2.793,0,0,1,.862,3.127,6.587,6.587,0,0,1-2.111,2.777c-1.881,1.622-4.368,3.479-3.784,5.783a4.057,4.057,0,0,0,2.738,2.561,13.6,13.6,0,0,0,4.019.53l55.515,1.749a21.048,21.048,0,0,0,5.481-.306,6.488,6.488,0,0,0,4.3-2.892c1.063-1.968.365-4.392-.948-6.229s-3.171-3.287-4.706-4.974-2.792-3.794-2.521-5.974c.217-1.746,1.368-3.254,2.194-4.841s1.306-3.568.236-5.027c-1.508-2.056-5.13-1.87-6.845-3.786-1.294-1.446-1.044-3.528-1.173-5.392a13.081,13.081,0,0,0-7.835-10.688,15.426,15.426,0,0,0-14.036.956Z" transform="translate(-292.765 -184.948)"/><path class="h" d="M539.339,609l-8.695-2.613,5.938-34.781,12.833,3.856Z" transform="translate(-152.371 -126.31)"/><path class="i" d="M667.874,760.853l-28.036-8.423.107-.355a11.394,11.394,0,0,1,14.191-7.634h0l17.123,5.145Z" transform="translate(-280.755 -269.072)"/><path class="h" d="M648.488,610.226h-9.079l-4.319-35.019h13.4Z" transform="translate(-182.222 -127.245)"/><path class="i" d="M781.789,762.651H752.515v-.37a11.394,11.394,0,0,1,11.394-11.394h17.88Z" transform="translate(-313.113 -270.87)"/><path class="j" d="M745.386,667.348a3.333,3.333,0,0,1-3.289-2.805l-13.48-84.091a2.592,2.592,0,0,0-4.953-.584L688.74,663.944a3.344,3.344,0,0,1-4.131,1.884l-12.614-4.205a3.321,3.321,0,0,1-2.2-3.9l28.621-126.648a3.351,3.351,0,0,1,2.5-2.512l38.384-8.91a3.379,3.379,0,0,1,2.745.57c25.275,18.365,23.14,78.365,18.429,143.514a3.334,3.334,0,0,1-3.18,3.091l-11.761.512Z" transform="translate(-290.929 -210.853)"/><circle class="h" cx="18.188" cy="18.188" r="18.188" transform="translate(404.457 200.673)"/><path class="k" d="M719.016,517.258a29.546,29.546,0,0,1-12.607-2.914l-.135-.063-.054-.14-16.314-42.267-.31-7.344a17.6,17.6,0,0,1,18.58-18.321l17.319.976a17.615,17.615,0,0,1,16.615,17.484c.45.864,3.645,7.622-2.616,13.97-.234,1.446-2.424,16.475,5.84,24.739l.232.232-.2.258C745.233,504.038,734.619,517.256,719.016,517.258Z" transform="translate(-295.673 -201.008)"/><path class="h" d="M758.637,535.069a7.447,7.447,0,0,0,3.908-10.729l17.3-20.026-13.637-1.775-14.336,19.29a7.487,7.487,0,0,0,6.766,13.241Z" transform="translate(-312.026 -214.646)"/><path class="k" d="M765.8,506.037a3.324,3.324,0,0,1-1.828-.548l-8.556-5.611a3.326,3.326,0,0,1-1.036-4.491l6.194-10.406a4.645,4.645,0,0,0-2.091-6.614l-17.793-7.977a10.607,10.607,0,0,1-6.007-11.786h0a10.546,10.546,0,0,1,15.131-7.223L776.8,465.213a14.2,14.2,0,0,1,5.039,20.949L768.5,504.653A3.324,3.324,0,0,1,765.8,506.037Z" transform="translate(-308.471 -202.368)"/><path class="l" d="M701.553,403.387a11.275,11.275,0,0,0,9.916-11.931,9.634,9.634,0,0,0,8.25,9.809c2.635.29,5.523-.507,7.817.822,2.54,1.472,3.353,5.047,6,6.319,2.557,1.229,5.8-.447,7.067-2.987s.953-5.591.116-8.3A23.44,23.44,0,0,0,701.7,387.51a15.008,15.008,0,0,0-4.644,8.937c-.311,3.411,1.272,7.113,4.335,8.646Z" transform="translate(-297.525 -187.648)"/><path class="h" d="M642.118,343.015a7.447,7.447,0,0,1,2.3,11.185l14.188,22.338-13.75-.236-11.365-21.177a7.487,7.487,0,0,1,8.628-12.111Z" transform="translate(-278.142 -178.967)"/><path class="k" d="M655.006,364.1l18.272,43.175,19.157,32.483a10.507,10.507,0,0,1-6.013,15.4h0a10.564,10.564,0,0,1-12.553-5.605l-36.921-78.891a3.332,3.332,0,0,1,2-4.585l11.971-3.846a3.407,3.407,0,0,1,.7-.146,3.313,3.313,0,0,1,3.39,2.02Z" transform="translate(-280.413 -182.057)"/><path class="m" d="M696.323,767.087H136.478a.741.741,0,0,1,0-1.481H696.323a.741.741,0,0,1,0,1.481Z" transform="translate(-135.737 -274.689)"/><path class="m" d="M733.076,240.347v60.724a.741.741,0,1,1-1.481,0V240.347a.741.741,0,1,1,1.481,0Z" transform="translate(-306.418 -155.932)"/><path class="m" d="M812.639,309.728l-20.945,20.946a.741.741,0,0,1-1.047-1.047l20.945-20.946a.741.741,0,0,1,1.047,1.047Z" transform="translate(-323.827 -171.674)"/><path class="m" d="M644.694,309.728l20.946,20.946a.741.741,0,0,0,1.047-1.047l-20.946-20.946a.741.741,0,0,0-1.047,1.047Z" transform="translate(-281.896 -171.674)"/></svg>