<svg xmlns="http://www.w3.org/2000/svg" width="55.32" height="55.32" viewBox="0 0 55.32 55.32"><defs><style>.a{fill:#0e253d;}</style></defs><path class="a" d="M0,32V87.32H55.32V32ZM30.105,75.145c0,5.384-3.161,7.841-7.767,7.841a8.076,8.076,0,0,1-7.8-4.754l4.235-2.556c.815,1.445,1.556,2.667,3.346,2.667,1.7,0,2.791-.667,2.791-3.272V57.4h5.2Zm12.3,7.841c-4.828,0-7.952-2.3-9.471-5.31l4.235-2.445a5.673,5.673,0,0,0,5.125,3.161c2.149,0,3.532-1.074,3.532-2.568,0-1.778-1.408-2.408-3.791-3.458l-1.3-.556C36.983,70.218,34.5,68.205,34.5,63.97c0-3.9,2.976-6.866,7.607-6.866a7.656,7.656,0,0,1,7.384,4.161l-4.05,2.593c-.889-1.593-1.852-2.223-3.346-2.223a2.256,2.256,0,0,0-2.482,2.223c0,1.556.963,2.186,3.2,3.161l1.3.556c4.421,1.889,6.9,3.828,6.9,8.175,0,4.668-3.68,7.236-8.607,7.236Z" transform="translate(0 -32)"/></svg>