<svg xmlns="http://www.w3.org/2000/svg" width="34.473" height="34.473" viewBox="0 0 34.473 34.473"><defs><style>.a{fill:#0e253d;}</style></defs><path class="a" d="M32.011,32H2.455A2.473,2.473,0,0,0,0,34.485v29.5a2.473,2.473,0,0,0,2.455,2.485H32.011a2.48,2.48,0,0,0,2.462-2.485v-29.5A2.48,2.48,0,0,0,32.011,32ZM10.419,61.548H5.309V45.1h5.117V61.548ZM7.864,42.85a2.963,2.963,0,1,1,2.963-2.963A2.964,2.964,0,0,1,7.864,42.85Zm21.707,18.7H24.462v-8c0-1.908-.038-4.363-2.655-4.363-2.662,0-3.07,2.078-3.07,4.224v8.141H13.628V45.1h4.9v2.247H18.6a5.382,5.382,0,0,1,4.84-2.655c5.171,0,6.133,3.409,6.133,7.841Z" transform="translate(0 -32)"/></svg>