<svg xmlns="http://www.w3.org/2000/svg" width="46.559" height="46.549" viewBox="0 0 46.559 46.549"><defs><style>.a{fill:#0e253d;}</style></defs><g transform="translate(0 -0.002)"><g transform="translate(0 0.002)"><path class="a" d="M7.42,4.982a9.621,9.621,0,0,0-2.393.232v7.572a9.012,9.012,0,0,0,1.938.149c3.084,0,4.987-1.559,4.987-4.187C11.949,6.392,10.312,4.982,7.42,4.982Z" transform="translate(8.371 8.291)"/><path class="a" d="M43.71,0H2.852A2.848,2.848,0,0,0,0,2.846V43.7a2.851,2.851,0,0,0,2.852,2.849H43.71A2.85,2.85,0,0,0,46.559,43.7V2.848A2.848,2.848,0,0,0,43.71,0ZM23.7,22.982c-1.975,1.866-4.909,2.7-8.329,2.7a14.393,14.393,0,0,1-1.98-.115v9.174H7.647V9.434a47.9,47.9,0,0,1,7.841-.53c3.574,0,6.127.682,7.836,2.055A7.485,7.485,0,0,1,26.069,16.9,8.189,8.189,0,0,1,23.7,22.982Zm8.665,12.14a13.14,13.14,0,0,1-6.018-1.293l1.026-4.147a11.386,11.386,0,0,0,4.992,1.4c1.746,0,2.471-.608,2.471-1.562s-.57-1.4-2.737-2.13C28.26,26.1,26.773,24.008,26.81,21.8c0-3.46,2.969-6.093,7.575-6.093a12.522,12.522,0,0,1,5.251,1.066l-1.026,4a9.1,9.1,0,0,0-4.035-1.063c-1.4,0-2.2.57-2.2,1.522,0,.874.717,1.33,3,2.132,3.539,1.215,5.027,3.006,5.061,5.741C40.435,32.571,37.689,35.122,32.37,35.122Z" transform="translate(0 -0.002)"/></g></g></svg>