<svg xmlns="http://www.w3.org/2000/svg" width="55.206" height="41.409" viewBox="0 0 55.206 41.409"><defs><style>.a{fill:#0e253d;}</style></defs><path class="a" d="M26.04,47.31C26.014,47.361,25.988,47.4,26.04,47.31Zm21.49-7.5a11.314,11.314,0,0,0-5,1.165,10.624,10.624,0,0,1-1.121-2.6,6.931,6.931,0,0,1-.095-2.182,18.378,18.378,0,0,1,.656-2.346c-.009-.095-.121-.569-1.234-.578s-2.07.216-2.182.509a10.6,10.6,0,0,0-.457,1.648c-.2,1.009-2.225,4.615-3.372,6.5a6.7,6.7,0,0,1-.768-1.9,6.931,6.931,0,0,1-.095-2.182,18.378,18.378,0,0,1,.656-2.346c-.009-.095-.121-.569-1.233-.578s-2.07.216-2.182.509-.233.983-.457,1.648-2.923,6.668-3.63,8.229c-.362.794-.673,1.432-.9,1.863-.035.069-.06.112-.078.147.026-.043.043-.086.043-.069-.19.371-.3.578-.3.578v.009c-.147.276-.311.526-.388.526a3.578,3.578,0,0,1,.026-1.717c.405-2.088,1.363-5.331,1.354-5.443-.009-.06.181-.621-.63-.923a1.015,1.015,0,0,0-1.139.19c-.069,0-.121.173-.121.173s.871-3.657-1.673-3.657c-1.587,0-3.8,1.742-4.881,3.321-.681.371-2.157,1.173-3.709,2.027l-1.786.983c-.043-.043-.078-.086-.121-.129-3.087-3.3-8.787-5.624-8.546-10.049.086-1.613.647-5.848,10.961-10.99,8.454-4.21,15.212-3.054,16.376-.483,1.673,3.666-3.613,10.489-12.392,11.473-3.346.371-5.1-.923-5.545-1.406-.457-.509-.526-.535-.7-.44-.285.155-.1.6,0,.871a5.2,5.2,0,0,0,3.174,2.493c1.613.526,5.536.819,10.28-1.018,5.329-2.053,9.477-7.772,8.261-12.56-1.239-4.865-9.306-6.461-16.934-3.752a38.37,38.37,0,0,0-13,7.453C.454,28.7-.218,32.128.058,33.56,1.04,38.64,8.043,41.953,10.845,44.4c-.138.078-.267.147-.388.216-1.405.7-6.744,3.494-8.08,6.444-1.51,3.347.25,5.745,1.405,6.073a8.612,8.612,0,0,0,9.279-3.761,9.34,9.34,0,0,0,.828-8.583c-.009-.026-.026-.043-.035-.069.362-.216.733-.431,1.1-.647.715-.423,1.414-.811,2.026-1.147a13.4,13.4,0,0,0-.725,3.675,7.636,7.636,0,0,0,1.648,5.322,1.81,1.81,0,0,0,1.328.431c1.19,0,1.725-.983,2.32-2.157.733-1.432,1.38-3.1,1.38-3.1s-.811,4.5,1.406,4.5c.81,0,1.621-1.044,1.984-1.579v.009s.017-.035.06-.1c.086-.129.129-.207.129-.207V49.7c.328-.561,1.044-1.846,2.121-3.968,1.4-2.743,2.734-6.168,2.734-6.168a17.359,17.359,0,0,0,.535,2.226,20.837,20.837,0,0,0,1.156,2.588c-.328.449-.526.707-.526.707a.027.027,0,0,0,.009.017c-.259.345-.552.716-.854,1.078A30.447,30.447,0,0,0,29.1,49.423a.881.881,0,0,0,.242,1.182,2.1,2.1,0,0,0,1.353.216,5.982,5.982,0,0,0,2.027-.466,7.091,7.091,0,0,0,1.742-.914,3.894,3.894,0,0,0,1.673-3.433,7.144,7.144,0,0,0-.63-2.433c.095-.138.2-.285.293-.431a45.857,45.857,0,0,0,3.027-5.229,17.36,17.36,0,0,0,.535,2.226,15.214,15.214,0,0,0,.983,2.217,9.482,9.482,0,0,0-2.941,3.8c-.638,1.837-.138,2.665.8,2.855a2.894,2.894,0,0,0,1.475-.3,6.854,6.854,0,0,0,1.862-.957A4.168,4.168,0,0,0,43.6,44.341a6.417,6.417,0,0,0-.466-2.019,10.529,10.529,0,0,1,5.356-.621c4.8.561,5.743,3.563,5.562,4.813a3.189,3.189,0,0,1-1.527,2.157c-.336.207-.44.285-.414.44.043.224.2.216.483.164a3.747,3.747,0,0,0,2.613-3.338c.138-2.933-2.682-6.159-7.677-6.133ZM10.509,52.287C8.923,54.021,6.7,54.676,5.74,54.124c-1.027-.6-.621-3.149,1.336-5a25.558,25.558,0,0,1,3.743-2.795c.233-.138.569-.345.983-.6.069-.043.1-.06.1-.06.078-.052.164-.095.25-.147a6.885,6.885,0,0,1-1.648,6.754ZM22.1,44.4c-.552,1.354-1.716,4.8-2.423,4.624-.6-.155-.975-2.786-.121-5.374a11.9,11.9,0,0,1,1.889-3.459c.87-.975,1.828-1.285,2.052-.9C23.8,39.8,22.444,43.557,22.1,44.4Zm9.575,4.572c-.233.121-.449.2-.552.138-.078-.043.095-.207.095-.207s1.2-1.285,1.673-1.872c.276-.345.6-.75.939-1.2,0,.043.009.086.009.138-.011,1.544-1.494,2.588-2.167,3Zm7.382-1.682c-.173-.121-.147-.526.431-1.786a6.7,6.7,0,0,1,1.639-2.113,3.121,3.121,0,0,1,.164.932,3.041,3.041,0,0,1-2.233,2.967Z" transform="translate(-0.004 -16.004)"/></svg>