<svg xmlns="http://www.w3.org/2000/svg" width="55.266" height="55.266" viewBox="0 0 55.266 55.266"><defs><style>.a{fill:none;}.b{fill:#0e253d;}</style></defs><g transform="translate(-5 -5)"><path class="a" d="M5,11.138A6.142,6.142,0,0,1,11.138,5h42.99a6.142,6.142,0,0,1,6.138,6.138v42.99a6.142,6.142,0,0,1-6.138,6.138H11.138A6.142,6.142,0,0,1,5,54.128Z" transform="translate(0 0)"/><path class="b" d="M44.2,44.2V90.259H90.259V44.2ZM59.686,63.684l2.94-7.5h5.056l-5.127,10.83L67.8,78.018H62.685l-3-7.631L56.7,78.018H51.584l5.244-11.006L51.7,56.194h5.056Zm9.184,5.726q0-3.986,1.352-5.95A4.485,4.485,0,0,1,74.149,61.5a3.776,3.776,0,0,1,3.116,1.623V54.994h4.268V78.018H77.677l-.2-1.646a3.9,3.9,0,0,1-3.363,1.952,4.428,4.428,0,0,1-3.892-1.952,10.3,10.3,0,0,1-1.376-5.726l.024-1.235Zm4.257,1.07a7.739,7.739,0,0,0,.506,3.351,1.8,1.8,0,0,0,1.729.952,2.079,2.079,0,0,0,1.9-1.129V66.248a2.024,2.024,0,0,0-1.893-1.2,1.825,1.825,0,0,0-1.705.941,7.317,7.317,0,0,0-.541,3.363Z" transform="translate(-34.591 -34.591)"/></g></svg>